<svg width="19" height="22" viewBox="0 0 19 22" fill="none" xmlns="http://www.w3.org/2000/svg">
<path fill-rule="evenodd" clip-rule="evenodd" d="M6.50192 0.500092L4.00192 3.00009L2.50189 6.00028L5.88172e-06 12.5C5.88172e-06 12.5 1.60177 12.59 2.24419 12.8171C2.8866 13.0442 6.00001 17 6.00001 17L6.51453 18.5L5.97841 20.1122L6.51453 21.0869C6.51453 21.0869 6.71809 20.3555 7.37424 19.7252C8.0304 19.095 9.51556 18.0092 9.51556 18.0092C9.51556 18.0092 9.04359 18.3475 9.00001 18C8.09562 18 8.07254 15.1852 9.00001 14.5C9.92747 13.8148 15.0538 12.3329 15.0538 12.3329L17 6.5L19 4.2668e-08L17.5 1.35282e-07L15.5 6.11134e-08L12.5 0.000221051L6.50192 0.500092Z" fill="#FFC9F0"/>
</svg>
